PathFileType	4	(X/Y/Z)	 s11c0103.trc
DataRate	CameraRate	NumFrames	NumMarkers	Units	OrigDataRate	OrigDataStartFrame	OrigNumFrames
200	200	4	48	mm	200	751	2000
Frame#	Time	racr			lacr			c7			jug			rlel			rdr			llel			ldr			s2			lic			ric			lasi			rasi			rpsi			lpsi			rgt			lgt			rth1			rth2			rth3			rth4			rlfc			rmfc			rsh1			rsh2			rsh3			rsh4			rlmal			rcal			rtoe			rmt5			lth1			lth2			lth4			lth3			llfc			lmfc			llmal			lcal			lmt5			lsh1			lsh2			lsh3			lsh4			ltoe			SBIKE			LBIKE			RBIKE			
		X1	Y1	Z1	X2	Y2	Z2	X3	Y3	Z3	X4	Y4	Z4	X5	Y5	Z5	X6	Y6	Z6	X7	Y7	Z7	X8	Y8	Z8	X9	Y9	Z9	X10	Y10	Z10	X11	Y11	Z11	X12	Y12	Z12	X13	Y13	Z13	X14	Y14	Z14	X15	Y15	Z15	X16	Y16	Z16	X17	Y17	Z17	X18	Y18	Z18	X19	Y19	Z19	X20	Y20	Z20	X21	Y21	Z21	X22	Y22	Z22	X23	Y23	Z23	X24	Y24	Z24	X25	Y25	Z25	X26	Y26	Z26	X27	Y27	Z27	X28	Y28	Z28	X29	Y29	Z29	X30	Y30	Z30	X31	Y31	Z31	X32	Y32	Z32	X33	Y33	Z33	X34	Y34	Z34	X35	Y35	Z35	X36	Y36	Z36	X37	Y37	Z37	X38	Y38	Z38	X39	Y39	Z39	X40	Y40	Z40	X41	Y41	Z41	X42	Y42	Z42	X43	Y43	Z43	X44	Y44	Z44	X45	Y45	Z45	X46	Y46	Z46	X47	Y47	Z47	X48	Y48	Z48	
751	3.7550	566.598281	1328.614244	-110.952724	549.079021	1316.661635	-424.324382	516.360283	1410.409206	-265.406452	506.130421	1226.489633	-271.920755	571.263993	1092.457507	46.754168	779.696105	927.937881	-37.069055	516.949427	1043.508115	-570.282874	785.605910	928.880436	-443.567822	-68.119314	1224.963666	-228.368421	131.197547	1249.972511	-444.760922	160.116073	1202.592531	-37.283698	149.493050	1180.604356	-401.501472	179.061440	1136.586961	-70.901456	-14.189844	1295.338657	-170.133074	-29.654269	1299.285903	-258.722388	74.540855	1051.891749	-25.047144	50.446538	1139.938888	-456.353994	156.921021	930.354937	-18.063134	224.749506	873.771821	-21.804166	256.822332	793.730223	-40.136517	254.488419	896.365538	-26.096692	319.794790	707.204332	-56.730195	331.375968	694.697606	-182.041032	242.271889	570.807627	-48.657857	218.294995	488.462168	-69.883118	156.821848	426.527746	-74.993397	241.542582	479.971854	-100.785587	82.489120	309.877595	-92.186725	20.595076	317.389739	-143.994150	267.012516	169.044213	-136.308709	190.816808	172.701187	-69.327552	188.448024	1084.864296	-469.569010	273.734555	1077.221976	-466.799260	287.246965	1109.239591	-452.774502	347.113401	1025.334114	-472.258311	474.979223	961.730685	-452.300507	488.342912	951.418868	-320.291973	257.542194	585.543447	-417.987867	190.614935	553.363133	-382.641534	383.105172	465.910988	-440.655834	416.743831	854.131142	-465.747119	398.040458	771.246568	-450.503051	339.169391	705.526760	-442.736340	426.870370	759.985676	-427.185777	477.622533	474.851578	-367.962873	-204.150445	953.022875	-261.389639	1.413977	82.919640	-460.727563	-15.104220	81.406383	-62.334560	
752	3.7600	564.575453	1329.557732	-110.585305	547.056311	1319.981491	-423.799286	514.046970	1412.974797	-264.699661	503.920080	1229.050061	-271.933465	569.959334	1092.515589	46.497496	779.335564	927.904660	-37.297312	518.427413	1046.866601	-570.529489	785.548353	929.100821	-443.436427	-69.232887	1224.261408	-227.913193	129.356723	1249.937759	-445.078960	158.874696	1203.325395	-36.844257	148.600196	1179.650187	-402.784571	178.169713	1137.068756	-70.684928	-18.958443	1295.870080	-168.345721	-30.730107	1298.367922	-258.604891	74.766939	1052.005007	-24.808395	48.686068	1138.621903	-455.645085	159.236807	931.776393	-17.632431	228.240226	876.497334	-21.214028	261.809476	796.979992	-39.012688	257.497933	899.655758	-25.801105	325.969765	711.141834	-55.144964	338.516329	698.858806	-180.312240	245.646445	575.917410	-47.516047	219.951754	494.131963	-68.985228	157.400582	433.494154	-74.231134	243.138880	485.205228	-99.892128	80.846937	318.420099	-91.604656	19.473618	328.276115	-143.520824	259.956331	170.339945	-136.707215	184.112584	177.050997	-69.642905	186.506968	1082.078402	-469.703094	271.694863	1073.385204	-467.092923	285.640508	1105.228261	-453.230118	344.447818	1020.756168	-472.912502	472.618168	954.398113	-452.480862	485.755533	944.988977	-320.648353	259.753638	574.951341	-418.101410	193.556603	540.350981	-382.618075	389.264345	460.159969	-440.832715	415.549943	845.452694	-466.018183	397.979279	762.383565	-450.826844	339.877713	695.944175	-443.046685	426.841356	751.540657	-427.278249	483.386618	472.799020	-368.122922	-204.153769	952.940984	-261.275613	1.402038	82.875953	-460.738821	-15.111537	81.343551	-62.316881	
753	3.7650	562.534787	1330.833796	-110.030689	545.017362	1323.667590	-423.203247	511.549866	1415.711102	-263.926684	501.935565	1231.766534	-271.979886	568.578094	1092.698817	46.256097	778.891787	927.852800	-37.557104	519.763911	1050.627155	-570.492222	785.536534	929.306030	-443.393801	-70.292311	1223.180935	-227.538254	127.240335	1249.572530	-444.997140	157.695515	1204.055657	-36.269427	147.459414	1178.100999	-403.399086	177.079725	1137.545778	-70.605324	-20.508011	1295.167336	-168.302814	-34.964708	1297.558771	-257.022875	75.050456	1052.049454	-24.564942	47.005247	1137.092535	-454.962776	161.376825	933.463040	-17.089495	231.733206	879.297064	-20.810320	266.680041	800.257974	-37.996875	260.420986	902.885393	-25.871121	331.837094	715.283540	-53.731745	345.264640	702.883914	-178.678774	249.036792	581.118038	-46.477316	221.800735	500.000772	-68.155185	158.169527	440.533301	-73.439923	244.820593	490.589876	-99.018213	79.407527	327.030051	-91.132914	18.453403	339.234690	-143.206882	253.098422	172.376222	-137.119259	177.777796	181.879032	-69.845527	184.992701	1079.297108	-470.399201	269.716242	1068.988542	-467.431935	284.117313	1100.701990	-453.797250	341.741829	1015.446034	-473.391538	469.132896	946.601300	-453.762568	483.195627	938.049435	-320.997489	262.129282	563.939372	-418.154070	196.989568	526.954854	-382.767726	395.221974	453.735286	-441.077588	414.364537	836.221261	-466.611661	397.922337	752.910440	-451.175763	340.681697	685.744580	-443.380258	426.786894	742.951519	-428.045359	488.926431	469.780128	-368.370123	-204.201775	952.869751	-261.214698	1.366439	82.796178	-460.750568	-15.134852	81.277173	-62.295362	
754	3.7700	560.456824	1332.325257	-109.361970	543.006678	1327.660791	-422.567403	508.755752	1418.738544	-263.264398	500.111306	1234.751742	-272.024177	567.105277	1093.228010	45.988535	778.385386	927.740082	-37.808334	521.015676	1054.600399	-570.176648	784.873604	928.998285	-442.573510	-71.388439	1221.969669	-227.059549	125.020912	1248.850850	-444.716075	156.224056	1204.730636	-35.872149	146.403766	1176.367848	-403.902768	175.842822	1137.951125	-70.318003	-19.200293	1293.771296	-169.906037	-34.396689	1296.657186	-258.094594	75.407896	1052.015031	-24.377987	45.447862	1135.303885	-454.347324	163.460992	935.360138	-16.504363	235.182664	882.180021	-20.579802	271.478522	803.721805	-37.179776	263.394471	906.298230	-26.040002	337.413529	719.611924	-52.409412	351.400960	707.145805	-177.359986	252.446502	586.419743	-45.426905	223.664489	505.823387	-67.331207	158.983192	447.670585	-72.756056	246.577692	496.157762	-98.208788	78.185239	335.930648	-90.694359	17.811518	350.559316	-142.739854	246.479205	175.070585	-137.359219	171.526370	186.904466	-70.165229	183.222085	1075.698893	-470.546528	267.773619	1064.122875	-467.801559	282.654326	1095.755927	-454.569998	339.025269	1009.594837	-473.780754	467.249742	938.085590	-452.492378	480.570429	930.536983	-321.507571	264.855548	552.496808	-418.303104	200.552323	513.920442	-382.750699	401.019803	446.826054	-441.275295	413.121283	826.372023	-467.173289	397.798508	743.029124	-451.291345	341.676818	674.899614	-443.590564	426.793761	733.510233	-428.171458	494.264418	465.760686	-368.311540	-204.234412	952.778001	-261.136682	1.331692	82.742319	-460.763682	-15.168340	81.190430	-62.261614	
